<?xml version="1.0" encoding="UTF-8"?>
<svg width="18px" height="18px" viewBox="0 0 18 18" version="1.1" xmlns="http://www.w3.org/2000/svg"
    xmlns:xlink="http://www.w3.org/1999/xlink">
    <title>编组 8</title>
    <g id="815-final————" stroke="none" stroke-width="1" fill="none" fill-rule="evenodd">
        <g id="实体图层" transform="translate(-1325.000000, -704.000000)" fill="currentColor">
            <g id="编组-8" transform="translate(1325.500000, 704.500000)">
                <path
                    d="M11.1143689,0.282512116 L10.8506661,1.24711609 C10.2528877,1.08369583 9.63223623,1 9,1 L9,0 C9.72152867,0 10.4308567,0.0956540036 11.1143689,0.282512116 Z M14.7790627,2.46803719 L14.056769,3.15962365 C13.6244635,2.70812326 13.1336875,2.31581228 12.5980443,1.99417258 L13.1128386,1.13685889 C13.7248286,1.50434277 14.2853623,1.95241593 14.7790627,2.46803719 Z M16.8021698,6.22450842 L15.8269091,6.44556636 C15.6883585,5.83431054 15.4683653,5.24724573 15.1738074,4.69777686 L16.0551541,4.22530675 C16.3920069,4.85367253 16.6436754,5.52526487 16.8021698,6.22450842 Z M16.882451,10.3735608 L15.8971064,10.2029851 C15.9653908,9.80853483 16,9.40657806 16,9 L16,8.29313593 L17,8.29313593 L17,9 C17,9.46381237 16.9604773,9.92283565 16.882451,10.3735608 Z M15.0664068,14.2154378 L14.3083945,13.5631975 C14.7160412,13.0894439 15.0589659,12.5633606 15.3270158,11.9989105 L16.230333,12.4278838 C15.9239166,13.0731248 15.5320704,13.6742588 15.0664068,14.2154378 Z M11.5268392,16.592604 L11.2111942,15.6437266 C11.8047489,15.44628 12.3679482,15.1697997 12.8869142,14.822624 L13.4429424,15.6537875 C12.849758,16.0506135 12.20575,16.3667636 11.5268392,16.592604 Z M7.37589205,16.9759904 L7.4528938,15.9789595 C7.63419141,15.9929613 7.81664468,16 7.99999796,16 L9.00741962,15.9999962 C9.1367044,15.9998622 9.26554331,15.9962284 9.39384827,15.9891205 L9.44916217,16.9875895 C9.30278432,16.9956987 9.15584603,16.999843 9.00793954,17 L8,17 C7.79094213,17 7.58280258,16.9919704 7.37589205,16.9759904 Z M3.39033163,15.53918 L3.96715572,14.7223116 C4.47738605,15.0826061 5.03356935,15.3733386 5.62175827,15.585785 L5.28205039,16.526316 C4.60934212,16.2833423 3.97345025,15.9509439 3.39033163,15.53918 Z M0.687464037,12.2491168 L1.60110565,11.8425962 C1.85516505,12.4135863 2.18504818,12.9478471 2.58095978,13.4313838 L1.80723046,14.0649002 C1.35492472,13.5124879 0.977927173,12.9019231 0.687464037,12.2491168 Z M5.68434189e-13,8.12060491 L1,8.12057951 L1.00002132,9.0174776 C1.00088002,9.36936708 1.02767057,9.71778821 1.07980114,10.0608836 L0.091148218,10.2111014 C0.0315923575,9.8191368 0.0010038232,9.42132145 2.28113728e-05,9.01871042 L5.68434189e-13,8.12060491 Z M1.05110676,4.03346225 L1.91914736,4.52995546 C1.60946508,5.07138641 1.37334852,5.65227938 1.21808013,6.25906347 L0.249294509,6.01116345 C0.426915708,5.31702528 0.697003645,4.65255606 1.05110676,4.03346225 Z M4.06260469,1.03451921 L4.55545044,1.90463591 C4.01177185,2.21258274 3.51127172,2.5923819 3.06768683,3.03287902 L2.36305401,2.3233069 C2.86965791,1.82022945 3.44135439,1.3864037 4.06260469,1.03451921 Z M8.17254372,0 L8.17254372,1 L8,1 C7.46039932,1 6.92911842,1.06096279 6.41306477,1.18053989 L6.18733108,0.206350841 C6.77727439,0.0696524429 7.38428417,0 8,0 L8.17254372,0 Z"
                    id="矩形" fill-rule="nonzero"></path>
                <circle id="椭圆形" stroke="currentColor" cx="8.58452763" cy="8.58105063" r="1"></circle>
                <path
                    d="M8.98679528,8.30654673 L9.68389067,9.02352512 L11.1178475,7.62933434 L10.4207521,6.91235595 L8.98679528,8.30654673 Z M11.1377305,6.21526056 L11.8348258,6.93223895 L13.2687826,5.53804816 L12.5716872,4.82106977 L11.1377305,6.21526056 Z M13.2886656,4.12397438 L13.985761,4.84095277 L15.4197178,3.44676199 L14.7226224,2.7297836 L13.2886656,4.12397438 Z"
                    id="直线" fill-rule="nonzero"
                    transform="translate(12.203257, 5.876654) rotate(7.000000) translate(-12.203257, -5.876654) ">
                </path>
            </g>
        </g>
    </g>
</svg>