<?xml version="1.0" encoding="UTF-8"?>
<svg width="14px" height="15px" viewBox="0 0 14 15" version="1.1" xmlns="http://www.w3.org/2000/svg"
    xmlns:xlink="http://www.w3.org/1999/xlink">
    <title>编组 10</title>
    <g id="最终版" stroke="none" stroke-width="1" fill="none" fill-rule="evenodd">
        <g id="实体对象-绘制二维矢量" transform="translate(-688.000000, -64.000000)" fill="currentColor" fill-rule="nonzero">
            <g id="编组-10" transform="translate(688.065503, 64.000000)">
                <path
                    d="M3.25007675,7.90948057 C4.74519946,7.90948057 5.9572359,9.091156 5.9572359,10.5488265 C5.9572359,12.006497 4.74519946,13.1881724 3.25007675,13.1881724 C1.75495403,13.1881724 0.542917597,12.006497 0.542917597,10.5488265 C0.542917597,9.091156 1.75495403,7.90948057 3.25007675,7.90948057 Z M3.25007675,8.70128435 C2.20349085,8.70128435 1.35506534,9.52845715 1.35506534,10.5488265 C1.35506534,11.5691959 2.20349085,12.3963687 3.25007675,12.3963687 C4.29666265,12.3963687 5.14508815,11.5691959 5.14508815,10.5488265 C5.14508815,9.52845715 4.29666265,8.70128435 3.25007675,8.70128435 Z"
                    id="椭圆形"
                    transform="translate(3.250077, 10.548827) rotate(75.000000) translate(-3.250077, -10.548827) ">
                </path>
                <polygon id="直线"
                    points="9.42433047 0 10.3621179 0.527869187 5.08315757 9.44225763 4.14537013 8.91438845"></polygon>
                <path
                    d="M10.6189182,8.12812867 C12.1140409,8.12812867 13.3260773,9.3098041 13.3260773,10.7674746 C13.3260773,12.2251451 12.1140409,13.4068205 10.6189182,13.4068205 C9.12379546,13.4068205 7.91175903,12.2251451 7.91175903,10.7674746 C7.91175903,9.3098041 9.12379546,8.12812867 10.6189182,8.12812867 Z M10.6189182,8.91993245 C9.57233228,8.91993245 8.72390677,9.74710525 8.72390677,10.7674746 C8.72390677,11.787844 9.57233228,12.6150168 10.6189182,12.6150168 C11.6655041,12.6150168 12.5139296,11.787844 12.5139296,10.7674746 C12.5139296,9.74710525 11.6655041,8.91993245 10.6189182,8.91993245 Z"
                    id="椭圆形"
                    transform="translate(10.618918, 10.767475) scale(-1, 1) rotate(75.000000) translate(-10.618918, -10.767475) ">
                </path>
                <polygon id="直线" transform="translate(6.601704, 4.906463) scale(-1, 1) translate(-6.601704, -4.906463) "
                    points="8.79704085 0.143539982 9.73482828 0.671409169 4.40636778 9.66938674 3.46858034 9.14151755">
                </polygon>
            </g>
        </g>
    </g>
</svg>