<?xml version="1.0" encoding="UTF-8"?>
<svg width="11px" height="11px" viewBox="0 0 11 11" version="1.1" xmlns="http://www.w3.org/2000/svg"
    xmlns:xlink="http://www.w3.org/1999/xlink">
    <title>路径</title>
    <g id="815-final————" stroke="none" stroke-width="1" fill="none" fill-rule="evenodd">
        <g id="实体图层" transform="translate(-1327.000000, -599.000000)" fill="currentColor" fill-rule="nonzero">
            <path
                d="M1338.49522,605.216213 C1338.49522,605.620707 1338.39891,605.895184 1338.20629,606.039646 C1338.01368,606.184108 1337.70549,606.256339 1337.28174,606.256339 L1336.37163,606.256339 C1335.9575,606.256339 1335.51689,606.258747 1335.0498,606.263562 C1334.58271,606.268378 1334.12765,606.270785 1333.68464,606.270785 L1332.63006,606.270785 C1332.26409,606.270785 1331.97276,606.306901 1331.75607,606.379132 C1331.53938,606.451363 1331.43584,606.617494 1331.44548,606.877525 C1331.44548,607.070141 1331.44066,607.298873 1331.43103,607.56372 C1331.4214,607.828566 1331.41658,608.062113 1331.41658,608.26436 C1331.41658,608.601438 1331.32509,608.815723 1331.14211,608.907215 C1330.95912,608.998708 1330.72317,608.9337 1330.43424,608.712192 C1330.14532,608.481053 1329.80343,608.208983 1329.40856,607.895982 C1329.0137,607.582981 1328.61161,607.262757 1328.20231,606.93531 C1327.793,606.607863 1327.3885,606.285232 1326.98883,605.967415 C1326.58915,605.649599 1326.23522,605.370306 1325.92703,605.129536 C1325.63811,604.898397 1325.49124,604.679297 1325.48629,604.472235 C1325.48161,604.265172 1325.61403,604.050887 1325.88369,603.829379 C1326.15335,603.59824 1326.47599,603.330985 1326.85159,603.027615 C1327.22719,602.724245 1327.61723,602.411245 1328.02173,602.088613 C1328.42622,601.765981 1328.82349,601.445757 1329.21354,601.127941 C1329.60359,600.810125 1329.9527,600.526016 1330.26089,600.275616 C1330.59797,600.005954 1330.87485,599.902423 1331.09154,599.965023 C1331.30824,600.027623 1331.41658,600.232277 1331.41658,600.578986 L1331.41658,600.940141 C1331.41658,601.074972 1331.41899,601.214618 1331.42381,601.35908 C1331.42862,601.503542 1331.43344,601.645596 1331.43825,601.785243 C1331.44307,601.924889 1331.44548,602.047682 1331.44548,602.153621 C1331.45511,602.394391 1331.53215,602.546076 1331.67661,602.608676 C1331.82108,602.671276 1332.01851,602.702576 1332.26891,602.702576 C1332.5482,602.702576 1332.91417,602.700168 1333.36682,602.695353 C1333.81947,602.690538 1334.29138,602.68813 1334.78255,602.68813 C1335.27372,602.68813 1335.75044,602.685722 1336.21272,602.680907 C1336.675,602.676091 1337.0506,602.673684 1337.33952,602.673684 C1337.46472,602.673684 1337.59474,602.683314 1337.72957,602.702576 C1337.8644,602.721838 1337.98719,602.767584 1338.09795,602.839815 C1338.2087,602.912046 1338.30019,603.013169 1338.37242,603.143185 C1338.44466,603.273201 1338.48077,603.444147 1338.48077,603.656025 C1338.48077,603.916056 1338.48318,604.166457 1338.48799,604.407227 C1338.49281,604.647997 1338.49522,604.917659 1338.49522,605.216213 L1338.49522,605.216213 Z"
                id="路径"
                transform="translate(1331.990756, 604.447331) rotate(45.000000) translate(-1331.990756, -604.447331) ">
            </path>
        </g>
    </g>
</svg>