<?xml version="1.0" encoding="UTF-8"?>
<svg width="15px" height="15px" viewBox="0 0 15 15" version="1.1" xmlns="http://www.w3.org/2000/svg"
    xmlns:xlink="http://www.w3.org/1999/xlink">
    <title>编组 11</title>
    <g id="最终版" stroke="none" stroke-width="1" fill="none" fill-rule="evenodd">
        <g id="实体对象-绘制二维矢量" transform="translate(-1162.000000, -160.000000)">
            <g id="编组-7" transform="translate(1162.000000, 160.000000)">
                <g>
                    <path
                        d="M13.0357096,0 L1.96429042,0 C0.881182637,0 0,0.881182637 0,1.96429042 L0,13.0357096 C0,14.1188174 0.881182637,15 1.96429042,15 L13.0357096,15 C14.1188174,15 15,14.1188174 15,13.0357096 L15,1.96429042 C15,0.881182637 14.1188346,0 13.0357096,0 Z M1.96429042,0.714289 L13.0357096,0.714289 C13.7249491,0.714289 14.285711,1.27503378 14.285711,1.96429044 L14.285711,4.25700775 C11.7657098,4.34535107 9.41055768,5.36652232 7.62066888,7.15641112 C6.78185393,7.99524325 6.11228639,8.95844669 5.62785845,10.0043238 C4.22599652,8.81503911 2.19655676,8.73879101 0.714288983,9.77569981 L0.714288983,1.96429042 C0.714288983,1.27503376 1.27503376,0.714289 1.96429042,0.714289 Z M0.714289,13.0357096 L0.714289,10.7005387 C1.99939066,9.452891 4.05259139,9.45417955 5.33595779,10.7046449 C4.92791538,11.8009646 4.71430732,12.973103 4.71430732,14.178572 C4.71430732,14.2159057 4.72008005,14.2518822 4.73071492,14.285711 L1.96429042,14.285711 C1.27503376,14.285711 0.714289,13.7249662 0.714289,13.0357096 Z M13.0357096,14.285711 L5.4121887,14.285711 C5.42282358,14.2518822 5.42859629,14.2159057 5.42859629,14.178572 C5.42859629,11.7152671 6.3864909,9.40076467 8.12578243,7.66147313 C9.78073375,6.00652182 11.9565705,5.05972597 14.2857282,4.97172626 L14.2857282,13.0357096 C14.2857282,13.7249662 13.7249662,14.285711 13.0357096,14.285711 Z"
                        id="形状" fill="currentColor" fill-rule="nonzero"></path>
                    <path
                        d="M4.14880348,5.84555552 C5.17023243,5.84555552 6.00123014,5.01457499 6.00123014,3.99312886 C6.00123014,2.97168273 5.17024961,2.1407022 4.14880348,2.1407022 C3.12735735,2.1407022 2.29637682,2.97168273 2.29637682,3.99312886 C2.29637682,5.01457499 3.12735735,5.84555552 4.14880348,5.84555552 Z M4.14880348,2.85500836 C4.77636413,2.85500836 5.28694115,3.36556821 5.28694115,3.99314604 C5.28694115,4.62072387 4.77638131,5.13128371 4.14880348,5.13128371 C3.52122565,5.13128371 3.0106658,4.62072387 3.0106658,3.99314604 C3.0106658,3.36556821 3.52122565,2.85500836 4.14880348,2.85500836 Z"
                        id="形状" fill="currentColor" fill-rule="nonzero"></path>
                </g>
            </g>
        </g>
    </g>
</svg>