<?xml version="1.0" standalone="no"?>
<!DOCTYPE svg PUBLIC "-//W3C//DTD SVG 1.1//EN" "http://www.w3.org/Graphics/SVG/1.1/DTD/svg11.dtd"><svg t="1657647369797"
  class="icon" viewBox="0 0 1024 1024" version="1.1" xmlns="http://www.w3.org/2000/svg" p-id="19426"
  xmlns:xlink="http://www.w3.org/1999/xlink" width="16" height="16">
  <path
    d="M771.70688 842.07616H250.83904c-39.70048 0-72.18176-32.48128-72.18176-72.18176V249.02656c0-39.70048 32.48128-72.18176 72.18176-72.18176h520.87296c39.70048 0 72.18176 32.48128 72.18176 72.18176v520.87296c-0.00512 39.69536-32.4864 72.17664-72.18688 72.17664z"
    stroke-width="2" fill="#ffffff" p-id="19427"></path>
  <path
    d="M771.712 849.76128H250.83904c-44.03712 0-79.86176-35.82464-79.86176-79.86688V249.02656c0-44.03712 35.82464-79.86176 79.86176-79.86176h520.87296c44.03712 0 79.86176 35.82464 79.86176 79.86176V769.8944c-0.00512 44.04224-35.82976 79.86688-79.86176 79.86688zM250.83904 184.5248c-35.56352 0-64.50176 28.93312-64.50176 64.50176V769.8944c0 35.56864 28.93312 64.50688 64.50176 64.50688h520.87296c35.56352 0 64.50176-28.93312 64.50176-64.50688V249.02656c0-35.56864-28.93312-64.50176-64.50176-64.50176H250.83904z"
    stroke-width="2" fill="#1D1E21" p-id="19428"></path>
  <path
    d="M780.27776 842.07616c4.03456 0 7.97184-0.41984 11.8016-1.14688-0.19456-17.69984-7.95136-58.36288-19.47648-97.46944a2330.21952 2330.21952 0 0 0 71.28576-19.43552v-22.7584c-18.48832 6.5024-47.40608 16.32768-76.69248 24.86272-5.30432-16.07168-11.17184-31.21664-17.3312-43.56608-45.34784-88.43264-58.24512-136.9344-77.09184-206.17216-6.80448-37.57056-8.68864-73.69728-7.6032-107.12576 49.3824 0.09728 107.55584-4.70016 178.7136-17.54624v-21.72928c-30.03904 4.44928-103.45472 14.22336-177.46432 15.68256 6.8352-90.41408 34.00704-156.55936 39.3472-168.82688h-24.54016c-9.2416 27.98592-22.50752 78.63296-30.60224 156.17536-0.6912 4.3008-1.29024 8.576-1.82272 12.84096-49.91488 0.03584-98.51392-4.23424-132.55168-17.024-28.75392-10.05568-59.75552-17.67424-92.22656-22.64064 21.53472-50.30912 36.08576-107.48416 41.26208-129.34656h-17.25952c-9.7792 45.37856-25.14944 88.24832-42.95168 126.78144-71.22432-8.38656-148.90496-3.64544-226.42688 18.3808v27.61216c43.16672-16.3072 107.47904-33.3056 179.95264-28.11392 12.30336 0.88064 24.17152 2.32448 35.80928 4.16256-33.91488 67.04128-73.59488 118.528-99.2 143.40096-26.73152 25.96352-64.91648 40.76032-90.6496 48.36352a1271.43936 1271.43936 0 0 0-25.91232-42.78272v38.48704c1.49504 2.70848 3.23584 5.89824 5.248 9.64608-2.2528 0.49664-4.02432 0.84992-5.248 1.08544v12.73344a333.5168 333.5168 0 0 0 11.65824-1.70496c23.75168 45.47584 66.19136 133.51936 85.85728 216.3456-32.34816 4.48-69.94944 7.94112-97.5104 6.88128v19.88096c26.32704-0.0768 66.1248-1.27488 101.81632-6.74816 4.7872 24.91392 7.12192 48.96256 5.86752 70.81984h23.4752c0.6656-14.8736 0.1792-40.21248-6.24128-75.57632 62.69952-13.824 168.30464-37.38624 220.7744-32.65024 57.96352 5.23264 109.42976 32.44544 162.12992 27.2128 18.01728-1.792 44.45696-7.3728 71.4496-13.94688 1.54624 3.64032 2.8928 6.85056 3.94752 9.43104 7.3728 18.02752 4.02432 62.5664 1.64864 85.53472h16.75776v-0.01024z m-93.80864-98.81088c-50.90816 2.09408-122.69056-32.67584-168.08448-31.16544-48.41472-1.40288-152.33024 19.3024-180.49024 27.6736-7.29088 2.17088-21.08928 5.03808-38.11328 7.86944-11.92448-53.84192-36.99712-126.80192-87.8592-217.24672 110.60736-27.90912 144.12288-113.3312 184.03328-171.21792 6.17472-8.95488 12.0064-19.18976 17.49504-30.1312 67.31264 13.1328 130.82112 37.10976 233.14944 39.94112-7.25504 112.62976 35.80416 210.44736 63.16032 274.81088 4.68992 5.53472 26.45504 53.376 41.09824 86.9376-24.7552 6.72768-48.3328 11.86816-64.38912 12.52864z"
    stroke-width="2" fill="#1D1E21" p-id="19429"></path>
  <path
    d="M389.10976 435.36384c0-69.64224 56.45824-126.10048 126.10048-126.10048s126.10048 56.45824 126.10048 126.10048-126.10048 209.82272-126.10048 209.82272-126.10048-140.18048-126.10048-209.82272z"
    stroke-width="2" fill="#FFFFFF" p-id="19430"></path>
  <path
    d="M515.21024 652.86656a7.68 7.68 0 0 1-5.7088-2.54464c-5.22752-5.8112-128.07168-143.19616-128.07168-214.95808 0-73.76896 60.01664-133.78048 133.78048-133.78048s133.78048 60.01152 133.78048 133.78048c0 71.76192-122.83904 209.14688-128.07168 214.95808a7.67488 7.67488 0 0 1-5.7088 2.54464z m0-335.9232c-65.29536 0-118.42048 53.12-118.42048 118.42048 0 57.6768 94.03392 170.01984 118.42048 198.17984 24.38656-28.16512 118.42048-140.52864 118.42048-198.17984 0-65.30048-53.12512-118.42048-118.42048-118.42048z"
    stroke-width="2" fill="#1D1E21" p-id="19431"></path>
  <path d="M516.25472 443.12576m-42.0608 0a42.0608 42.0608 0 1 0 84.1216 0 42.0608 42.0608 0 1 0-84.1216 0Z"
    stroke-width="2" fill="#FFFFFF" p-id="19432"></path>
  <path
    d="M516.25472 492.86656c-27.42784 0-49.7408-22.31296-49.7408-49.7408s22.31296-49.7408 49.7408-49.7408c27.42272 0 49.7408 22.31296 49.7408 49.7408s-22.31296 49.7408-49.7408 49.7408z m0-84.1216c-18.95936 0-34.3808 15.42144-34.3808 34.3808s15.42144 34.3808 34.3808 34.3808c18.95424 0 34.3808-15.42144 34.3808-34.3808s-15.42656-34.3808-34.3808-34.3808z"
    stroke-width="2" fill="#1D1E21" p-id="19433"></path>
</svg>