<?xml version="1.0" encoding="UTF-8"?>
<svg width="14px" height="14px" viewBox="0 0 14 14" version="1.1" xmlns="http://www.w3.org/2000/svg"
    xmlns:xlink="http://www.w3.org/1999/xlink">
    <title>形状</title>
    <g id="最终版" stroke="none" stroke-width="1" fill="none" fill-rule="evenodd">
        <g id="多边形选" transform="translate(-506.000000, -75.000000)">
            <g transform="translate(506.000000, 75.000000)">
                <path
                    d="M11.0027313,13.61395 L2.99788125,13.61395 C2.76915625,13.61395 2.56589375,13.4721125 2.49816875,13.2552 L0.02471875,5.753125 C-0.0441027365,5.53677168 0.0346008855,5.30073153 0.21949375,5.168975 L6.69116875,0.5376 C6.87754375,0.4041625 7.13164375,0.4041625 7.30944375,0.5376 L13.7811188,5.168975 C13.9660116,5.30073153 14.0447152,5.53677168 13.9758938,5.753125 L11.5024438,13.2551125 C11.4347188,13.4721125 11.2314563,13.61395 11.0027313,13.61395 Z M3.30159375,12.688375 L10.6905312,12.688375 L12.9748063,5.767125 L6.99619375,1.488375 L1.01749375,5.767125 L3.30168125,12.688375 L3.30159375,12.688375 Z"
                    id="形状" fill="currentColor" fill-rule="nonzero"></path>
            </g>
        </g>
    </g>
</svg>