<?xml version="1.0" encoding="UTF-8"?>
<svg width="14px" height="14px" viewBox="0 0 14 14" version="1.1" xmlns="http://www.w3.org/2000/svg"
    xmlns:xlink="http://www.w3.org/1999/xlink">
    <title>编组 5</title>
    <g id="最终版" stroke="none" stroke-width="1" fill="none" fill-rule="evenodd">
        <g id="实体对象-绘制二维矢量" transform="translate(-684.000000, -66.000000)">
            <g id="编组-5" transform="translate(684.000000, 66.000000)">
                <g id="放大镜">
                    <g>
                        <rect id="矩形" fill="currentColor" fill-rule="nonzero" opacity="0" x="0" y="0" width="14"
                            height="14">
                        </rect>
                        <path
                            d="M12.5958984,11.9492187 L10.0912109,9.44453125 C10.7925781,8.58867187 11.2136719,7.49628906 11.2136719,6.30546875 C11.2136719,3.56972656 8.98789063,1.34257812 6.25078125,1.34257812 C3.51503906,1.34257812 1.28789062,3.56835937 1.28789062,6.30546875 C1.28789062,9.04257812 3.51367188,11.2683594 6.25078125,11.2683594 C7.44023438,11.2683594 8.53398438,10.8472656 9.38984375,10.1458984 L11.8945313,12.6505859 C11.9916016,12.7476562 12.11875,12.7955078 12.2458984,12.7955078 C12.3730469,12.7955078 12.5001953,12.7476562 12.5972656,12.6505859 C12.7900391,12.4564453 12.7900391,12.1419922 12.5958984,11.9492187 L12.5958984,11.9492187 Z M2.28046875,6.30546875 C2.28046875,4.11660156 4.06191406,2.33515625 6.25078125,2.33515625 C8.43964844,2.33515625 10.2210937,4.11660156 10.2210937,6.30546875 C10.2210937,8.49433594 8.43964844,10.2757812 6.25078125,10.2757812 C4.06191406,10.2757812 2.28046875,8.49433594 2.28046875,6.30546875 Z"
                            id="形状" fill="currentColor" fill-rule="nonzero"></path>
                    </g>
                </g>
                <polygon id="+" fill="currentColor" fill-rule="nonzero"
                    points="6.59575495 8.20321226 6.59575495 6.55521226 8.23575495 6.55521226 8.23575495 5.80321226 6.59575495 5.80321226 6.59575495 4.16321226 5.84375495 4.16321226 5.84375495 5.80321226 4.19575495 5.80321226 4.19575495 6.55521226 5.84375495 6.55521226 5.84375495 8.20321226">
                </polygon>
            </g>
        </g>
    </g>
</svg>