<?xml version="1.0" encoding="UTF-8"?>
<svg width="17px" height="17px" viewBox="0 0 17 17" version="1.1" xmlns="http://www.w3.org/2000/svg"
    xmlns:xlink="http://www.w3.org/1999/xlink">
    <title>编组 5</title>
    <g id="815-final————" stroke="none" stroke-width="1" fill="none" fill-rule="evenodd">
        <g id="实体图层" transform="translate(-1325.000000, -632.000000)" fill="currentColor" fill-rule="nonzero">
            <g id="编组-5" transform="translate(1325.500000, 632.500000)">
                <path
                    d="M13.2995196,10.0536958 C13.2995196,10.323358 13.2353143,10.5063431 13.1069038,10.602651 C12.9784932,10.698959 12.7730362,10.747113 12.4905329,10.747113 L11.8837929,10.747113 C11.6077101,10.747113 11.3139708,10.7487181 11.0025752,10.7519284 C10.6911795,10.7551386 10.3878094,10.7567438 10.0924651,10.7567438 L9.38941708,10.7567438 C9.14543695,10.7567438 8.95121593,10.7808207 8.80675401,10.8289747 C8.6622921,10.8771287 8.5932714,10.9878828 8.59969193,11.1612371 C8.59969193,11.2896477 8.59648167,11.4421353 8.59006114,11.6186999 C8.58364061,11.7952644 8.58043034,11.9509623 8.58043034,12.0857934 C8.58043034,12.3105119 8.51943531,12.4533687 8.39744525,12.5143638 C8.27545519,12.5753588 8.11815221,12.5320202 7.92553632,12.384348 C7.73292043,12.2302553 7.50499163,12.0488754 7.24174991,11.8402081 C6.97850819,11.6315409 6.71045108,11.4180583 6.43757857,11.1997603 C6.16470606,10.9814623 5.89504381,10.7663746 5.62859183,10.5544971 C5.36213985,10.3426196 5.12618539,10.1564242 4.92072844,9.99591099 C4.72811255,9.84181828 4.63019947,9.69575123 4.62690472,9.55770984 C4.62377894,9.41966845 4.71206122,9.27681167 4.89183605,9.12913949 C5.07161088,8.97504678 5.28669863,8.79687708 5.53709928,8.59463039 C5.78749994,8.39238371 6.04753139,8.18371649 6.31719364,7.96862875 C6.58685588,7.75354101 6.85170273,7.5400584 7.11173418,7.32818092 C7.37176564,7.11630344 7.60450984,6.92689781 7.80996678,6.75996404 C8.03468532,6.58018921 8.21927555,6.51116852 8.36373747,6.55290196 C8.50819939,6.5946354 8.58043034,6.73107166 8.58043034,6.96221073 L8.58043034,7.20298059 C8.58043034,7.292868 8.58203548,7.38596568 8.58524574,7.48227363 C8.58845601,7.57858157 8.59166627,7.67328439 8.59487654,7.76638207 C8.5980868,7.85947975 8.59969193,7.9413415 8.59969193,8.01196733 C8.60611246,8.17248057 8.6574767,8.27360391 8.75378465,8.31533735 C8.85009259,8.3570708 8.98171345,8.37793752 9.14864722,8.37793752 C9.33484258,8.37793752 9.57882271,8.37633238 9.8805876,8.37312212 C10.1823525,8.36991186 10.4969584,8.36830672 10.8244055,8.36830672 C11.1518525,8.36830672 11.4696687,8.36670159 11.7778541,8.36349133 C12.0860395,8.36028106 12.3364402,8.35867593 12.5290561,8.35867593 C12.612523,8.35867593 12.6992001,8.36509646 12.7890875,8.37793752 C12.878975,8.39077858 12.9608367,8.42127609 13.0346728,8.46943006 C13.1085089,8.51758404 13.1695039,8.5849996 13.2176579,8.67167675 C13.2658119,8.7583539 13.2898889,8.8723183 13.2898889,9.01356995 C13.2898889,9.18692425 13.291494,9.35385803 13.2947042,9.51437127 C13.2979145,9.67488451 13.2995196,9.85465934 13.2995196,10.0536958 L13.2995196,10.0536958 Z"
                    id="路径"
                    transform="translate(8.963212, 9.541108) rotate(45.000000) translate(-8.963212, -9.541108) "></path>
                <path
                    d="M16,2.08578644 L15,2.08578644 L15,1.5 C15,1.22385763 14.7761424,1 14.5,1 L14.5,0 C15.3284271,0 16,0.671572875 16,1.5 L16,2.08578644 Z M16,6.08578644 L15,6.08578644 L15,4.08578644 L16,4.08578644 L16,6.08578644 Z M16,10.0857864 L15,10.0857864 L15,8.08578644 L16,8.08578644 L16,10.0857864 Z M16,14.0857864 L15,14.0857864 L15,12.0857864 L16,12.0857864 L16,14.0857864 Z M12.3284271,16 L12.3284271,15 L14.3284271,15 L14.3284271,16 L12.3284271,16 Z M8.32842712,16 L8.32842712,15 L10.3284271,15 L10.3284271,16 L8.32842712,16 Z M4.32842712,16 L4.32842712,15 L6.32842712,15 L6.32842712,16 L4.32842712,16 Z M0.0755193779,14.9708161 L1.02503558,14.6570981 C1.09206741,14.8599803 1.28264906,15 1.5,15 L2.32842712,15 L2.32842712,16 L1.5,16 C0.848069974,16 0.276916376,15.5803753 0.0755193779,14.9708161 Z M0,10.7426407 L1,10.7426407 L1,12.7426407 L0,12.7426407 L0,10.7426407 Z M0,6.74264069 L1,6.74264069 L1,8.74264069 L0,8.74264069 L0,6.74264069 Z M0,2.74264069 L1,2.74264069 L1,4.74264069 L0,4.74264069 L0,2.74264069 Z M2.84053125,6.83567509e-06 L2.84576025,0.999993164 L1.43712045,1.00386289 C1.32513727,1.01776969 1.22227733,1.0692711 1.14337576,1.14954403 L0.430203449,0.44855526 C0.66593269,0.208728923 0.976089526,0.0534350744 1.37288603,0.00768126763 L2.84053125,6.83567509e-06 Z M6.84314575,0 L6.84314575,1 L4.84314575,1 L4.84314575,0 L6.84314575,0 Z M10.8431458,0 L10.8431458,1 L8.84314575,1 L8.84314575,0 L10.8431458,0 Z M14.5,0 L14.5,1 L12.8431458,1 L12.8431458,0 L14.5,0 Z"
                    id="矩形"></path>
            </g>
        </g>
    </g>
</svg>