<?xml version="1.0" encoding="UTF-8"?>
<svg width="16px" height="16px" viewBox="0 0 16 16" version="1.1" xmlns="http://www.w3.org/2000/svg"
    xmlns:xlink="http://www.w3.org/1999/xlink">
    <title>gis_俯视</title>
    <g id="最终版" stroke="none" stroke-width="1" fill="none" fill-rule="evenodd">
        <g id="gis_俯视" transform="translate(-599.000000, -96.000000)">
            <g transform="translate(599.000000, 96.000000)">
                <rect id="矩形" fill="currentColor" fill-rule="nonzero" opacity="0" x="0" y="0" width="16" height="16">
                </rect>
                <path
                    d="M9.414,12.157 L10.121,12.864 L8,14.985 L5.879,12.864 L6.586,12.157 L7.999,13.572 L9.414,12.157 Z M8,5.5 C9.38071187,5.5 10.5,6.61928813 10.5,8 C10.5,9.38071187 9.38071187,10.5 8,10.5 C6.61928813,10.5 5.5,9.38071187 5.5,8 C5.5,6.61928813 6.61928813,5.5 8,5.5 Z M3.136,5.879 L3.843,6.586 L2.43,8 L3.844,9.414 L3.137,10.121 L1.015,8 L3.136,5.879 Z M12.864,5.879 L14.985,8 L12.864,10.121 L12.157,9.414 L13.572,8.001 L12.157,6.586 L12.864,5.879 Z M8,6.5 C7.17157288,6.5 6.5,7.17157288 6.5,8 C6.5,8.82842712 7.17157288,9.5 8,9.5 C8.82842712,9.5 9.5,8.82842712 9.5,8 C9.5,7.17157288 8.82842712,6.5 8,6.5 Z M8,1.015 L10.121,3.136 L9.414,3.843 L8.001,2.428 L6.586,3.843 L5.879,3.136 L8,1.015 Z"
                    id="形状" fill="currentColor" fill-rule="nonzero"></path>
            </g>
        </g>
    </g>
</svg>