<?xml version="1.0" encoding="UTF-8"?>
<svg width="19px" height="19px" viewBox="0 0 19 19" version="1.1" xmlns="http://www.w3.org/2000/svg"
    xmlns:xlink="http://www.w3.org/1999/xlink">
    <title>三维模型</title>
    <g id="最终版" stroke="none" stroke-width="1" fill="#000" fill-rule="evenodd">
        <g id="三维模型" transform="translate(-1159.000000, -132.000000)">
            <g transform="translate(1159.000000, 132.000000)">
                <rect id="矩形" fill="currentColor" fill-rule="nonzero" opacity="0" x="0" y="0" width="19" height="19">
                </rect>
                <path
                    d="M16.8439453,4.20078125 L16.8458008,4.19707031 L9.75976562,1.82207031 L9.51113281,1.73857422 C9.50371094,1.73671875 9.49628906,1.73671875 9.48886719,1.73857422 L9.24208984,1.82207031 L2.15791016,4.19707031 L2.15976563,4.20078125 C2.01689453,4.26015625 1.91113281,4.39931641 1.91113281,4.571875 L1.91113281,14.0236328 C1.91113281,14.0366211 1.91855469,14.0496094 1.93154297,14.0551758 L9.01943359,17.0628906 L9.26435547,17.1667969 L9.48886719,17.2614258 C9.49814453,17.2651367 9.50742188,17.2651367 9.51484375,17.2614258 L9.73935547,17.1667969 L9.98427734,17.0628906 L17.072168,14.0551758 C17.0851562,14.0496094 17.0925781,14.0384766 17.0925781,14.0236328 L17.0925781,4.57001953 C17.0907227,4.39931641 16.9849609,4.26015625 16.8439453,4.20078125 L16.8439453,4.20078125 Z M8.97119141,15.9941406 L2.89453125,13.4150391 C2.88154297,13.4094727 2.87412109,13.3983398 2.87412109,13.3834961 L2.87412109,5.47177734 C2.87412109,5.44765625 2.89824219,5.43095703 2.92050781,5.44023437 L8.99716797,8.01933594 C9.01015625,8.02490234 9.01757812,8.03603516 9.01757812,8.05087891 L9.01757812,15.9625977 C9.01757812,15.9867187 8.99345703,16.003418 8.97119141,15.9941406 Z M9.48701172,7.18066406 L3.74619141,4.74257812 C3.71835937,4.72958984 3.71835937,4.68876953 3.74804687,4.67949219 L9.50185547,2.75166016 L15.2538086,4.67949219 C15.2834961,4.68876953 15.2853516,4.72958984 15.2556641,4.74257812 L9.51298828,7.18066406 C9.50556641,7.184375 9.49443359,7.184375 9.48701172,7.18066406 Z M16.1054687,13.4150391 L10.0288086,15.9941406 C10.006543,16.003418 9.98242188,15.9867187 9.98242188,15.9625977 L9.98242188,8.05087891 C9.98242188,8.03789062 9.98984375,8.02490234 10.002832,8.01933594 L16.0794922,5.44023437 C16.1017578,5.43095703 16.1258789,5.44765625 16.1258789,5.47177734 L16.1258789,13.3834961 C16.1258789,13.3964844 16.118457,13.4094727 16.1054687,13.4150391 Z"
                    id="形状" fill="currentColor" fill-rule="nonzero"></path>
            </g>
        </g>
    </g>
</svg>