<?xml version="1.0" encoding="UTF-8"?>
<svg width="18px" height="15px" viewBox="0 0 18 15" version="1.1" xmlns="http://www.w3.org/2000/svg"
    xmlns:xlink="http://www.w3.org/1999/xlink">
    <title>编组 6</title>
    <defs>
        <filter id="filter-1">
            <feColorMatrix in="SourceGraphic" type="matrix"
                values="0 0 0 0 0.333333 0 0 0 0 0.333333 0 0 0 0 0.333333 0 0 0 1.000000 0"></feColorMatrix>
        </filter>
        <filter id="filter-2">
            <feColorMatrix in="SourceGraphic" type="matrix"
                values="0 0 0 0 0.592157 0 0 0 0 0.592157 0 0 0 0 0.592157 0 0 0 1.000000 0"></feColorMatrix>
        </filter>
        <filter id="filter-3">
            <feColorMatrix in="SourceGraphic" type="matrix"
                values="0 0 0 0 0.592157 0 0 0 0 0.592157 0 0 0 0 0.592157 0 0 0 1.000000 0"></feColorMatrix>
        </filter>
        <filter id="filter-4">
            <feColorMatrix in="SourceGraphic" type="matrix"
                values="0 0 0 0 0.592157 0 0 0 0 0.592157 0 0 0 0 0.592157 0 0 0 1.000000 0"></feColorMatrix>
        </filter>
        <filter id="filter-5">
            <feColorMatrix in="SourceGraphic" type="matrix"
                values="0 0 0 0 0.592157 0 0 0 0 0.592157 0 0 0 0 0.592157 0 0 0 1.000000 0"></feColorMatrix>
        </filter>
    </defs>
    <g id="815-final》" stroke="none" stroke-width="1" fill="none" fill-rule="evenodd">
        <g id="编组-6" transform="translate(-629.000000, -613.000000)">
            <g transform="translate(629.000000, 613.000000)">
                <g id="录音">
                    <g transform="translate(11.000000, 0.000000)">
                        <rect id="矩形" fill="currentColor" fill-rule="nonzero" opacity="0" x="0" y="0" width="4"
                            height="4"></rect>
                        <path
                            d="M1.5,1 C1.708,1 1.90266667,1.03933333 2.084,1.118 C2.26533333,1.19666667 2.424,1.304 2.56,1.44 C2.696,1.576 2.80333333,1.73533333 2.882,1.918 C2.96066667,2.10066667 3,2.296 3,2.504 C3,2.70933333 2.96066667,2.90266667 2.882,3.084 C2.80333333,3.26533333 2.696,3.424 2.56,3.56 C2.424,3.696 2.26533333,3.80333333 2.084,3.882 C1.90266667,3.96066667 1.708,4 1.5,4 C1.292,4 1.09733333,3.96066667 0.916,3.882 C0.734666667,3.80333333 0.576,3.696 0.44,3.56 C0.304,3.424 0.196666667,3.26533333 0.118,3.084 C0.0393333333,2.90266667 0,2.70933333 0,2.504 C0,2.296 0.0393333333,2.10066667 0.118,1.918 C0.196666667,1.73533333 0.304,1.576 0.44,1.44 C0.576,1.304 0.734666667,1.19666667 0.916,1.118 C1.09733333,1.03933333 1.292,1 1.5,1 Z"
                            id="路径" fill="currentColor" fill-rule="nonzero"></path>
                    </g>
                </g>
                <g id="录音">
                    <g transform="translate(3.000000, 11.000000)">
                        <rect id="矩形" fill="currentColor" fill-rule="nonzero" opacity="0" x="0" y="0" width="4"
                            height="4"></rect>
                        <path
                            d="M1.5,1 C1.708,1 1.90266667,1.03933333 2.084,1.118 C2.26533333,1.19666667 2.424,1.304 2.56,1.44 C2.696,1.576 2.80333333,1.73533333 2.882,1.918 C2.96066667,2.10066667 3,2.296 3,2.504 C3,2.70933333 2.96066667,2.90266667 2.882,3.084 C2.80333333,3.26533333 2.696,3.424 2.56,3.56 C2.424,3.696 2.26533333,3.80333333 2.084,3.882 C1.90266667,3.96066667 1.708,4 1.5,4 C1.292,4 1.09733333,3.96066667 0.916,3.882 C0.734666667,3.80333333 0.576,3.696 0.44,3.56 C0.304,3.424 0.196666667,3.26533333 0.118,3.084 C0.0393333333,2.90266667 0,2.70933333 0,2.504 C0,2.296 0.0393333333,2.10066667 0.118,1.918 C0.196666667,1.73533333 0.304,1.576 0.44,1.44 C0.576,1.304 0.734666667,1.19666667 0.916,1.118 C1.09733333,1.03933333 1.292,1 1.5,1 Z"
                            id="路径" fill="currentColor" fill-rule="nonzero"></path>
                    </g>
                </g>
                <g id="录音">
                    <g transform="translate(0.000000, 4.000000)">
                        <rect id="矩形" fill="currentColor" fill-rule="nonzero" opacity="0" x="0" y="0" width="4"
                            height="4"></rect>
                        <path
                            d="M1.5,1 C1.708,1 1.90266667,1.03933333 2.084,1.118 C2.26533333,1.19666667 2.424,1.304 2.56,1.44 C2.696,1.576 2.80333333,1.73533333 2.882,1.918 C2.96066667,2.10066667 3,2.296 3,2.504 C3,2.70933333 2.96066667,2.90266667 2.882,3.084 C2.80333333,3.26533333 2.696,3.424 2.56,3.56 C2.424,3.696 2.26533333,3.80333333 2.084,3.882 C1.90266667,3.96066667 1.708,4 1.5,4 C1.292,4 1.09733333,3.96066667 0.916,3.882 C0.734666667,3.80333333 0.576,3.696 0.44,3.56 C0.304,3.424 0.196666667,3.26533333 0.118,3.084 C0.0393333333,2.90266667 0,2.70933333 0,2.504 C0,2.296 0.0393333333,2.10066667 0.118,1.918 C0.196666667,1.73533333 0.304,1.576 0.44,1.44 C0.576,1.304 0.734666667,1.19666667 0.916,1.118 C1.09733333,1.03933333 1.292,1 1.5,1 Z"
                            id="路径" fill="currentColor" fill-rule="nonzero"></path>
                    </g>
                </g>
                <g id="录音">
                    <g transform="translate(14.000000, 7.000000)">
                        <rect id="矩形" fill="currentColor" fill-rule="nonzero" opacity="0" x="0" y="0" width="4"
                            height="4"></rect>
                        <path
                            d="M1.5,1 C1.708,1 1.90266667,1.03933333 2.084,1.118 C2.26533333,1.19666667 2.424,1.304 2.56,1.44 C2.696,1.576 2.80333333,1.73533333 2.882,1.918 C2.96066667,2.10066667 3,2.296 3,2.504 C3,2.70933333 2.96066667,2.90266667 2.882,3.084 C2.80333333,3.26533333 2.696,3.424 2.56,3.56 C2.424,3.696 2.26533333,3.80333333 2.084,3.882 C1.90266667,3.96066667 1.708,4 1.5,4 C1.292,4 1.09733333,3.96066667 0.916,3.882 C0.734666667,3.80333333 0.576,3.696 0.44,3.56 C0.304,3.424 0.196666667,3.26533333 0.118,3.084 C0.0393333333,2.90266667 0,2.70933333 0,2.504 C0,2.296 0.0393333333,2.10066667 0.118,1.918 C0.196666667,1.73533333 0.304,1.576 0.44,1.44 C0.576,1.304 0.734666667,1.19666667 0.916,1.118 C1.09733333,1.03933333 1.292,1 1.5,1 Z"
                            id="路径" fill="currentColor" fill-rule="nonzero"></path>
                    </g>
                </g>
                <line x1="12.5" y1="2.5" x2="4.5" y2="13.5" id="直线-11" stroke="currentColor" stroke-linecap="square">
                </line>
                <line x1="12.5" y1="2.5" x2="15.5" y2="9.5" id="直线-11" stroke="currentColor" stroke-linecap="square">
                </line>
                <line x1="1.5" y1="6.5" x2="4.5" y2="13.5" id="直线-11" stroke="currentColor" stroke-linecap="square">
                </line>
            </g>
        </g>
    </g>
</svg>