<?xml version="1.0" encoding="UTF-8"?>
<svg width="18px" height="18px" viewBox="0 0 18 18" version="1.1" xmlns="http://www.w3.org/2000/svg"
    xmlns:xlink="http://www.w3.org/1999/xlink">
    <title>绘制-01 2</title>
    <g id="最终版" stroke="none" stroke-width="1" fill="none" fill-rule="evenodd">
        <g id="实体对象-绘制二维矢量" transform="translate(-1195.000000, -105.000000)">
            <g id="绘制-01" transform="translate(1195.000000, 105.000000)">
                <g>
                    <rect id="矩形" fill="currentColor" fill-rule="nonzero" opacity="0" x="0" y="0" width="18"
                        height="18"></rect>
                    <path
                        d="M7.12705078,12.5534186 C7.01897231,12.5533562 6.91675166,12.5042898 6.84910232,12.4200014 C6.78145298,12.3357131 6.755673,12.2252958 6.77900391,12.1197656 L7.41568359,9.24134766 C7.44327581,9.1169774 7.53513937,9.01678411 7.65665369,8.97852759 C7.77816801,8.94027106 7.9108617,8.96976668 8.00472656,9.05589844 L10.1754492,11.0471484 C10.2694358,11.1330881 10.3104076,11.262657 10.2829188,11.3870091 C10.2554301,11.5113613 10.1636609,11.611587 10.042207,11.6499023 L7.23462891,12.5368945 C7.19983497,12.5479119 7.16354728,12.5534855 7.12705078,12.5534186 L7.12705078,12.5534186 Z M7.97818359,9.99896484 L7.60904297,11.6709961 L9.24011719,11.1557813 L7.97818359,9.99896484 Z M10.7896289,10.7564067 C10.5995109,10.7566231 10.4163199,10.6850543 10.2766992,10.5560156 L8.48302734,8.91210938 C8.17361926,8.62771792 8.15240058,8.14668249 8.43556641,7.83615234 L13.765957,2.00777344 C13.9021854,1.85874847 14.0920989,1.77003444 14.2938129,1.76119689 C14.4955268,1.75235933 14.6924713,1.82412421 14.8412109,1.96066406 L16.6341797,3.60527344 C16.9432948,3.88944565 16.9645116,4.37004524 16.6816406,4.68035156 L11.3516016,10.509082 C11.2157796,10.6583016 11.0258665,10.7469278 10.8242578,10.7551758 C10.8130078,10.7551758 10.8014062,10.7562305 10.7901562,10.7562305 L10.7896289,10.7564067 Z M14.3593945,2.48607422 L14.2918945,2.4890625 L8.96185547,8.31673828 C8.94394668,8.33672802 8.94535417,8.36738013 8.96501953,8.38564453 L10.7579883,10.0300781 C10.7674978,10.0380419 10.7795103,10.0423829 10.7919141,10.0423829 L16.1560547,4.20011719 C16.1741378,4.18025592 16.1727221,4.14950256 16.1528906,4.13138672 L14.3593945,2.48607422 Z M3.88160156,16.2291797 C3.37886719,16.2291797 2.94996094,16.0843359 2.60384766,15.7960547 C2.16667969,15.4328906 1.91830078,14.9679492 1.86556641,14.4145898 C1.82109375,13.9478906 1.91408203,13.4231836 2.14998047,12.8104102 C2.56341797,11.7365625 3.37253906,10.5263086 4.15494141,9.35595703 C5.57648438,7.22900391 7.04636719,5.03068359 5.98306641,3.92923828 C5.45730469,3.38431641 4.61197266,3.29519531 3.46939453,3.66398438 C2.55533203,3.95912109 1.81371094,4.44216797 1.80632813,4.44691406 C1.63158178,4.56137292 1.39713464,4.51250025 1.28267578,4.33775391 C1.16821692,4.16300756 1.21708959,3.92856042 1.39183594,3.81410156 C1.42558594,3.79195313 2.2275,3.26917969 3.23753906,2.94398437 C4.65714844,2.48554687 5.79462891,2.64515625 6.52728516,3.40365234 C6.89642578,3.78667969 7.09189453,4.26111328 7.10736328,4.81376953 C7.11966797,5.27800781 7.00734375,5.79568359 6.76388672,6.39580078 C6.33427734,7.4559375 5.54625,8.63455078 4.78423828,9.77449219 C4.0246875,10.9105664 3.23947266,12.0853125 2.85626953,13.0805859 C2.35458984,14.3836523 2.71564453,14.9048437 3.08759766,15.2135156 C3.77367188,15.7851562 4.99394531,15.3047461 5.89675781,14.8007812 C6.95144531,14.2115625 7.82208984,13.4520117 7.83035156,13.4444531 C7.98723495,13.3067433 8.22604994,13.3222865 8.36375977,13.4791699 C8.50146959,13.6360533 8.48592636,13.8748683 8.32904297,14.0125781 C8.29107422,14.0458008 7.38949219,14.8329492 6.26484375,15.4608398 C5.58808594,15.8385938 4.96916016,16.0797656 4.42546875,16.1778516 C4.24606578,16.211093 4.06405593,16.2282704 3.88160156,16.2291797 Z"
                        id="形状" fill="currentColor" fill-rule="nonzero"></path>
                </g>
            </g>
        </g>
    </g>
</svg>