<?xml version="1.0" encoding="UTF-8"?>
<svg width="16px" height="16px" viewBox="0 0 16 16" version="1.1" xmlns="http://www.w3.org/2000/svg"
    xmlns:xlink="http://www.w3.org/1999/xlink">
    <title>结束</title>
    <defs>
        <filter id="filter-1">
            <feColorMatrix in="SourceGraphic" type="matrix"
                values="0 0 0 0 0.105882 0 0 0 0 0.345098 0 0 0 0 0.956863 0 0 0 1.000000 0"></feColorMatrix>
        </filter>
    </defs>
    <g id="最终版" stroke="none" stroke-width="1" fill="none" fill-rule="evenodd">
        <g id="结束" transform="translate(-747.000000, -63.000000)">
            <g transform="translate(747.000000, 63.000000)">
                <rect id="矩形" fill="currentColor" fill-rule="nonzero" opacity="0" x="0" y="0" width="16" height="16">
                </rect>
                <path
                    d="M10.8733333,3.48 C10.994,3.48 11.1053333,3.52266667 11.192,3.59466667 L11.196,3.588 C13.4556483,5.01003435 14.5038267,7.75408681 13.7676785,10.3204612 C13.0315303,12.8868357 10.6881766,14.6580487 8.0183213,14.6661137 C5.348466,14.6741238 2.9944905,12.917052 2.24290371,10.3551564 C1.49131693,7.79326076 2.52295465,5.04294705 4.774,3.60733333 L4.78733333,3.624 C4.93178463,3.48117702 5.14828811,3.43994441 5.33512415,3.51967444 C5.52196018,3.59940447 5.64198841,3.78424794 5.63881609,3.98736002 C5.63564377,4.19047211 5.50990151,4.37147699 5.32066667,4.44533333 L5.36733333,4.41533333 C3.46895926,5.59088052 2.5801338,7.88265096 3.1894767,10.0307749 C3.7988196,12.1788989 5.75861228,13.6626223 7.99148529,13.6662883 C10.2243583,13.6699542 12.1890124,12.1926741 12.8054057,10.0465626 C13.421799,7.90045113 12.5405037,5.60577445 10.646,4.424 C10.4417849,4.31826069 10.3360285,4.08686192 10.3897203,3.86325111 C10.4434122,3.63964031 10.6427049,3.48148781 10.8726667,3.48 L10.8733333,3.48 Z M8,1.33333333 L8,1.33333333 C8.33333333,1.33333333 8.5,1.49999999 8.5,1.83333333 L8.5,8.16666667 C8.5,8.50000001 8.33333333,8.66666667 8,8.66666667 L8,8.66666667 C7.66666667,8.66666667 7.5,8.50000001 7.5,8.16666667 L7.5,1.83333333 C7.5,1.49999999 7.66666667,1.33333333 8,1.33333333 Z"
                    id="形状" fill="currentColor" fill-rule="nonzero"></path>
            </g>
        </g>
    </g>
</svg>