<?xml version="1.0" encoding="UTF-8"?>
<svg width="14px" height="14px" viewBox="0 0 14 14" version="1.1" xmlns="http://www.w3.org/2000/svg"
    xmlns:xlink="http://www.w3.org/1999/xlink">
    <title>删除</title>

    <g id="最终版" stroke="none" stroke-width="1" fill="none" fill-rule="evenodd">
        <g id="删除" transform="translate(-718.000000, -64.000000)">
            <g transform="translate(718.000000, 64.000000)">
                <rect id="矩形" fill="currentColor" fill-rule="nonzero" opacity="0" x="0" y="0" width="14" height="14">
                </rect>
                <path
                    d="M8.31110365,10.5005879 C8.06887285,10.5005879 7.87367714,10.3053922 7.87367714,10.0631614 L7.87367714,5.2491181 C7.87367714,5.00688729 8.06887283,4.81169158 8.31110365,4.81169158 C8.55333447,4.81169158 8.74853016,5.00688728 8.74853016,5.2491181 L8.74853016,10.0608097 C8.74853016,10.3030405 8.55333445,10.5005879 8.31110365,10.5005879 Z M5.6865446,10.5005879 C5.44431379,10.5005879 5.24911808,10.3053922 5.24911808,10.0631614 L5.24911808,5.2491181 C5.24911808,5.00688729 5.44431379,4.81169158 5.68654461,4.81169158 C5.92877541,4.81169158 6.12397112,5.00688728 6.12397112,5.2491181 L6.12397112,10.0608097 C6.12397112,10.3030405 5.92877541,10.5005879 5.6865446,10.5005879 Z M12.6877205,3.06198555 L10.5005879,3.06198555 L10.5005879,2.18713254 C10.5005879,1.46279187 9.91735261,0.874853014 9.19771545,0.874853014 L4.81169158,0.874853014 C4.08735091,0.874853014 3.49941205,1.46279187 3.49941205,2.18713254 L3.49941205,3.06198555 L1.31227951,3.06198555 C1.07004871,3.06198555 0.874853,3.25718125 0.874853,3.49941207 C0.874853,3.74164288 1.0700487,3.93683858 1.31227951,3.93683858 L12.6877205,3.93683858 C12.9299513,3.93683858 13.125147,3.74164288 13.125147,3.49941207 C13.125147,3.25718125 12.9299513,3.06198555 12.6877205,3.06198555 Z M4.37426508,2.18713254 C4.37426508,1.94725349 4.57181253,1.74970603 4.8116916,1.74970603 L9.19771545,1.74970603 C9.4375945,1.74970603 9.62573493,1.94254997 9.62573493,2.18713254 L9.62573493,3.06198555 L4.37426508,3.06198555 L4.37426508,2.18713254 L4.37426508,2.18713254 Z M10.0631614,13.125147 L3.93919032,13.125147 C3.21484965,13.125147 2.62691079,12.5372081 2.62691079,11.8128675 L2.62691079,5.24441457 C2.62691079,5.00218377 2.82210649,4.80698806 3.06433731,4.80698806 C3.30656813,4.80698806 3.50176382,5.00218376 3.50176382,5.24441457 L3.50176382,11.8128675 C3.50176382,12.0550983 3.69931127,12.250294 3.93919034,12.250294 L10.0655132,12.250294 C10.307744,12.250294 10.5029397,12.0550983 10.5029397,11.8128675 L10.5029397,5.26087687 C10.5029397,5.01864606 10.6981354,4.82345035 10.9403662,4.82345035 C11.182597,4.82345035 11.3777927,5.01864605 11.3777927,5.26087687 L11.3777927,11.8128675 C11.375441,12.5348564 10.7875021,13.125147 10.0631614,13.125147 Z"
                    id="形状" fill="currentColor" fill-rule="nonzero"></path>
            </g>
        </g>
    </g>
</svg>