<?xml version="1.0" encoding="UTF-8"?>
<svg width="12px" height="12px" viewBox="0 0 12 12" version="1.1" xmlns="http://www.w3.org/2000/svg"
    xmlns:xlink="http://www.w3.org/1999/xlink">
    <title>矩形</title>
    <g id="最终版" stroke="none" stroke-width="1" fill="none" fill-rule="evenodd">
        <g id="实体对象-绘制二维矢量" transform="translate(-551.000000, -65.000000)" fill="currentColor" fill-rule="nonzero">
            <path
                d="M560,65 C561.656854,65 563,66.3431458 563,68 L563,74 C563,75.6568542 561.656854,77 560,77 L554,77 C552.343146,77 551,75.6568542 551,74 L551,68 C551,66.3431458 552.343146,65 554,65 L560,65 Z M560,66 L554,66 C552.945638,66 552.081835,66.8158778 552.005486,67.8507377 L552,68 L552,74 C552,75.0543618 552.815878,75.9181651 553.850738,75.9945143 L554,76 L560,76 C561.054362,76 561.918165,75.1841222 561.994514,74.1492623 L562,74 L562,68 C562,66.9456382 561.184122,66.0818349 560.149262,66.0054857 L560,66 Z"
                id="矩形"></path>
        </g>
    </g>
</svg>