<?xml version="1.0" encoding="UTF-8"?>
<svg width="18px" height="18px" viewBox="0 0 18 18" version="1.1" xmlns="http://www.w3.org/2000/svg"
    xmlns:xlink="http://www.w3.org/1999/xlink">
    <title>编组 7</title>
    <g id="815-final————" stroke="none" stroke-width="1" fill="none" fill-rule="evenodd">
        <g id="实体图层" transform="translate(-1325.000000, -667.000000)" fill="currentColor" fill-rule="nonzero">
            <g id="编组-7" transform="translate(1325.500000, 667.500000)">
                <path
                    d="M13.2995196,10.0536958 C13.2995196,10.323358 13.2353143,10.5063431 13.1069038,10.602651 C12.9784932,10.698959 12.7730362,10.747113 12.4905329,10.747113 L11.8837929,10.747113 C11.6077101,10.747113 11.3139708,10.7487181 11.0025752,10.7519284 C10.6911795,10.7551386 10.3878094,10.7567438 10.0924651,10.7567438 L9.38941708,10.7567438 C9.14543695,10.7567438 8.95121593,10.7808207 8.80675401,10.8289747 C8.6622921,10.8771287 8.5932714,10.9878828 8.59969193,11.1612371 C8.59969193,11.2896477 8.59648167,11.4421353 8.59006114,11.6186999 C8.58364061,11.7952644 8.58043034,11.9509623 8.58043034,12.0857934 C8.58043034,12.3105119 8.51943531,12.4533687 8.39744525,12.5143638 C8.27545519,12.5753588 8.11815221,12.5320202 7.92553632,12.384348 C7.73292043,12.2302553 7.50499163,12.0488754 7.24174991,11.8402081 C6.97850819,11.6315409 6.71045108,11.4180583 6.43757857,11.1997603 C6.16470606,10.9814623 5.89504381,10.7663746 5.62859183,10.5544971 C5.36213985,10.3426196 5.12618539,10.1564242 4.92072844,9.99591099 C4.72811255,9.84181828 4.63019947,9.69575123 4.62690472,9.55770984 C4.62377894,9.41966845 4.71206122,9.27681167 4.89183605,9.12913949 C5.07161088,8.97504678 5.28669863,8.79687708 5.53709928,8.59463039 C5.78749994,8.39238371 6.04753139,8.18371649 6.31719364,7.96862875 C6.58685588,7.75354101 6.85170273,7.5400584 7.11173418,7.32818092 C7.37176564,7.11630344 7.60450984,6.92689781 7.80996678,6.75996404 C8.03468532,6.58018921 8.21927555,6.51116852 8.36373747,6.55290196 C8.50819939,6.5946354 8.58043034,6.73107166 8.58043034,6.96221073 L8.58043034,7.20298059 C8.58043034,7.292868 8.58203548,7.38596568 8.58524574,7.48227363 C8.58845601,7.57858157 8.59166627,7.67328439 8.59487654,7.76638207 C8.5980868,7.85947975 8.59969193,7.9413415 8.59969193,8.01196733 C8.60611246,8.17248057 8.6574767,8.27360391 8.75378464,8.31533735 C8.85009259,8.3570708 8.98171345,8.37793752 9.14864722,8.37793752 C9.33484258,8.37793752 9.57882271,8.37633238 9.8805876,8.37312212 C10.1823525,8.36991186 10.4969584,8.36830672 10.8244055,8.36830672 C11.1518525,8.36830672 11.4696687,8.36670159 11.7778541,8.36349133 C12.0860395,8.36028106 12.3364402,8.35867593 12.5290561,8.35867593 C12.612523,8.35867593 12.6992001,8.36509646 12.7890875,8.37793752 C12.878975,8.39077858 12.9608367,8.42127609 13.0346728,8.46943006 C13.1085089,8.51758404 13.1695039,8.5849996 13.2176579,8.67167675 C13.2658119,8.7583539 13.2898889,8.8723183 13.2898889,9.01356995 C13.2898889,9.18692425 13.291494,9.35385803 13.2947042,9.51437127 C13.2979145,9.67488451 13.2995196,9.85465934 13.2995196,10.0536958 L13.2995196,10.0536958 Z"
                    id="路径"
                    transform="translate(8.963212, 9.541108) rotate(45.000000) translate(-8.963212, -9.541108) "></path>
                <path
                    d="M11.1143689,0.282512116 L10.8506661,1.24711609 C10.2528877,1.08369583 9.63223623,1 9,1 L9,0 C9.72152867,0 10.4308567,0.0956540036 11.1143689,0.282512116 Z M14.7790627,2.46803719 L14.056769,3.15962365 C13.6244635,2.70812326 13.1336875,2.31581228 12.5980443,1.99417258 L13.1128386,1.13685889 C13.7248286,1.50434277 14.2853623,1.95241593 14.7790627,2.46803719 Z M16.8021698,6.22450842 L15.8269091,6.44556636 C15.6883585,5.83431054 15.4683653,5.24724573 15.1738074,4.69777686 L16.0551541,4.22530675 C16.3920069,4.85367253 16.6436754,5.52526487 16.8021698,6.22450842 Z M16.882451,10.3735608 L15.8971064,10.2029851 C15.9653908,9.80853483 16,9.40657806 16,9 L16,8.29313593 L17,8.29313593 L17,9 C17,9.46381237 16.9604773,9.92283565 16.882451,10.3735608 Z M15.0664068,14.2154378 L14.3083945,13.5631975 C14.7160412,13.0894439 15.0589659,12.5633606 15.3270158,11.9989105 L16.230333,12.4278838 C15.9239166,13.0731248 15.5320704,13.6742588 15.0664068,14.2154378 Z M11.5268392,16.592604 L11.2111942,15.6437266 C11.8047489,15.44628 12.3679482,15.1697997 12.8869142,14.822624 L13.4429424,15.6537875 C12.849758,16.0506135 12.20575,16.3667636 11.5268392,16.592604 Z M7.37589205,16.9759904 L7.4528938,15.9789595 C7.63419141,15.9929613 7.81664468,16 7.99999796,16 L9.00741962,15.9999962 C9.1367044,15.9998622 9.26554331,15.9962284 9.39384827,15.9891205 L9.44916217,16.9875895 C9.30278432,16.9956987 9.15584603,16.999843 9.00793954,17 L8,17 C7.79094213,17 7.58280258,16.9919704 7.37589205,16.9759904 Z M3.39033163,15.53918 L3.96715572,14.7223116 C4.47738605,15.0826061 5.03356935,15.3733386 5.62175827,15.585785 L5.28205039,16.526316 C4.60934212,16.2833423 3.97345025,15.9509439 3.39033163,15.53918 Z M0.687464037,12.2491168 L1.60110565,11.8425962 C1.85516505,12.4135863 2.18504818,12.9478471 2.58095978,13.4313838 L1.80723046,14.0649002 C1.35492472,13.5124879 0.977927173,12.9019231 0.687464037,12.2491168 Z M5.68434189e-13,8.12060491 L1,8.12057951 L1.00002132,9.0174776 C1.00088002,9.36936708 1.02767057,9.71778821 1.07980114,10.0608836 L0.091148218,10.2111014 C0.0315923575,9.8191368 0.0010038232,9.42132145 2.28113728e-05,9.01871042 L5.68434189e-13,8.12060491 Z M1.05110676,4.03346225 L1.91914736,4.52995546 C1.60946508,5.07138641 1.37334852,5.65227938 1.21808013,6.25906347 L0.249294509,6.01116345 C0.426915708,5.31702528 0.697003645,4.65255606 1.05110676,4.03346225 Z M4.06260469,1.03451921 L4.55545044,1.90463591 C4.01177185,2.21258274 3.51127172,2.5923819 3.06768683,3.03287902 L2.36305401,2.3233069 C2.86965791,1.82022945 3.44135439,1.3864037 4.06260469,1.03451921 Z M8.17254372,0 L8.17254372,1 L8,1 C7.46039932,1 6.92911842,1.06096279 6.41306477,1.18053989 L6.18733108,0.206350841 C6.77727439,0.0696524429 7.38428417,0 8,0 L8.17254372,0 Z"
                    id="矩形"></path>
            </g>
        </g>
    </g>
</svg>