<?xml version="1.0" encoding="UTF-8"?>
<svg width="20px" height="19px" viewBox="0 0 20 19" version="1.1" xmlns="http://www.w3.org/2000/svg"
    xmlns:xlink="http://www.w3.org/1999/xlink">
    <title>编组 12</title>
    <g id="815-final————" stroke="none" stroke-width="1" fill="none" fill-rule="evenodd">
        <g id="实体图层" transform="translate(-1325.000000, -738.000000)" fill="currentColor" fill-rule="nonzero">
            <g id="编组-12" transform="translate(1325.602475, 738.225590)">
                <path
                    d="M14.1970445,11.3281061 C14.1970445,11.5977683 14.1328392,11.7807534 14.0044286,11.8770614 C13.876018,11.9733693 13.6705611,12.0215233 13.3880578,12.0215233 L12.7813177,12.0215233 C12.505235,12.0215233 12.2114957,12.0231284 11.9001,12.0263387 C11.5887043,12.029549 11.2853343,12.0311541 10.98999,12.0311541 L10.286942,12.0311541 C10.0429618,12.0311541 9.84874081,12.0552311 9.70427889,12.1033851 C9.55981697,12.151539 9.49079628,12.2622932 9.49721681,12.4356475 C9.49721681,12.5640581 9.49400655,12.7165456 9.48758602,12.8931102 C9.48116549,13.0696748 9.47795522,13.2253726 9.47795522,13.3602037 C9.47795522,13.5849223 9.41696019,13.7277791 9.29497013,13.7887741 C9.17298006,13.8497691 9.01567709,13.8064306 8.8230612,13.6587584 C8.63044531,13.5046657 8.4025165,13.3232857 8.13927479,13.1146185 C7.87603307,12.9059513 7.60797596,12.6924687 7.33510345,12.4741706 C7.06223094,12.2558726 6.79256869,12.0407849 6.52611671,11.8289074 C6.25966473,11.6170299 6.02371026,11.4308346 5.81825331,11.2703213 C5.62563742,11.1162286 5.52772435,10.9701616 5.5244296,10.8321202 C5.52130382,10.6940788 5.6095861,10.551222 5.78936093,10.4035498 C5.96913576,10.2494571 6.1842235,10.0712874 6.43462416,9.86904074 C6.68502482,9.66679405 6.94505627,9.45812684 7.21471852,9.24303909 C7.48438076,9.02795135 7.74922761,8.81446874 8.00925906,8.60259126 C8.26929051,8.39071378 8.50203471,8.20130816 8.70749166,8.03437439 C8.9322102,7.85459955 9.11680043,7.78557886 9.26126234,7.8273123 C9.40572426,7.86904575 9.47795522,8.005482 9.47795522,8.23662107 L9.47795522,8.47739093 C9.47795522,8.56727835 9.47956035,8.66037603 9.48277062,8.75668397 C9.48598088,8.85299192 9.48919115,8.94769473 9.49240141,9.04079241 C9.49561168,9.13389009 9.49721681,9.21575184 9.49721681,9.28637767 C9.50363734,9.44689091 9.55500158,9.54801425 9.65130952,9.5897477 C9.74761747,9.63148114 9.87923832,9.65234786 10.0461721,9.65234786 C10.2323675,9.65234786 10.4763476,9.65074273 10.7781125,9.64753246 C11.0798774,9.6443222 11.3944833,9.64271707 11.7219303,9.64271707 C12.0493774,9.64271707 12.3671936,9.64111193 12.675379,9.63790167 C12.9835644,9.6346914 13.2339651,9.63308627 13.426581,9.63308627 C13.5100478,9.63308627 13.596725,9.6395068 13.6866124,9.65234786 C13.7764998,9.66518892 13.8583616,9.69568644 13.9321977,9.74384041 C14.0060338,9.79199438 14.0670288,9.85940994 14.1151828,9.94608709 C14.1633367,10.0327642 14.1874137,10.1467286 14.1874137,10.2879803 C14.1874137,10.4613346 14.1890189,10.6282684 14.1922291,10.7887816 C14.1954394,10.9492949 14.1970445,11.1290697 14.1970445,11.3281061 L14.1970445,11.3281061 Z"
                    id="路径"
                    transform="translate(9.860737, 10.815518) rotate(45.000000) translate(-9.860737, -10.815518) ">
                </path>
                <path
                    d="M12.485022,1.39957432 L11.8972367,2.20859131 L10.2792028,1.03302081 L10.866988,0.224003812 L12.485022,1.39957432 Z M15.72109,3.75071533 L15.1333047,4.55973232 L13.5152707,3.38416182 L14.103056,2.57514482 L15.72109,3.75071533 Z M18.8975995,6.56988969 L17.9613102,6.92111944 C17.8585812,6.64727009 17.6783506,6.40881638 17.4386269,6.23464693 L16.7513387,5.73530282 L17.339124,4.92628583 L18.0264122,5.42562994 C18.4256253,5.71567524 18.7264739,6.11371238 18.8975995,6.56988969 Z M18.0695516,10.8830303 L17.1184951,10.5740133 L17.7365291,8.67190027 L18.6875856,8.98091726 L18.0695516,10.8830303 Z M16.8334836,14.6872564 L15.8824271,14.3782394 L16.5004611,12.4761263 L17.4515176,12.7851433 L16.8334836,14.6872564 Z M14.412451,18.2940678 L14.1764815,17.3223074 C14.6797555,17.2000989 15.0873532,16.8252254 15.2488771,16.3281058 L15.2643931,16.2803524 L16.2154496,16.5893694 L16.1999336,16.6371228 C15.9307289,17.4656497 15.2515329,18.0903162 14.412451,18.2940678 Z M10.2236442,18.3645803 L10.2236442,17.3645803 L12.2236442,17.3645803 L12.2236442,18.3645803 L10.2236442,18.3645803 Z M6.22364423,18.3645803 L6.22364423,17.3645803 L8.22364423,17.3645803 L8.22364423,18.3645803 L6.22364423,18.3645803 Z M2.47308012,16.2615049 L3.4222483,15.9467356 L3.57425166,16.407026 C3.72575847,16.7981576 4.03379792,17.106205 4.42094612,17.2595125 L4.05277029,18.1892687 C3.40775878,17.9338495 2.89442641,17.4205039 2.63342407,16.7450125 L2.47308012,16.2615049 Z M1.23606798,12.4544027 L2.18712449,12.1453857 L2.80515848,14.0474987 L1.85410197,14.3565157 L1.23606798,12.4544027 Z M-1.13686838e-13,8.65017662 L0.951056516,8.34115962 L1.56909051,10.2432727 L0.618033989,10.5522896 L-1.13686838e-13,8.65017662 Z M1.73625835,4.72261425 L2.32606808,5.53015649 L1.28794543,6.28745095 C1.13014686,6.41650209 1.0015482,6.57517065 0.908211226,6.75421712 L0.0214668397,6.29195702 C0.177100478,5.99340809 0.391801595,5.72850396 0.676505098,5.49663293 L1.73625835,4.72261425 Z M4.97333857,2.37073586 L5.56112382,3.17975286 L3.94308983,4.35532336 L3.35530458,3.54630637 L4.97333857,2.37073586 Z M8.30044133,-5.68434189e-14 L8.73947597,0.898470136 C8.66156047,0.936543304 8.58678884,0.981478543 8.515847,1.03302081 L7.17915781,2.00418235 L6.59137255,1.19516536 L7.92806175,0.224003812 C8.04597984,0.138331299 8.17053062,0.0634804656 8.30044133,-5.68434189e-14 Z"
                    id="多边形"></path>
            </g>
        </g>
    </g>
</svg>